<svg width="28" height="28" viewBox="0 0 28 28" fill="none" xmlns="http://www.w3.org/2000/svg">
<path d="M14.0005 2.3335C20.4403 2.33367 25.6665 7.5606 25.6665 14.0005C25.6663 20.4402 20.4402 25.6663 14.0005 25.6665C7.5606 25.6665 2.33367 20.4403 2.3335 14.0005C2.3335 7.56049 7.56049 2.3335 14.0005 2.3335ZM12.8335 17.5005V19.8335H15.1665V17.5005H12.8335ZM14.0005 8.1665C13.3588 8.1665 12.8335 8.69183 12.8335 9.3335V14.0005C12.8337 14.642 13.3589 15.1665 14.0005 15.1665C14.6419 15.1663 15.1663 14.6419 15.1665 14.0005V9.3335C15.1665 8.69194 14.642 8.16668 14.0005 8.1665Z" fill="#C8D8E0"/>
</svg>
