<svg width="28" height="28" viewBox="0 0 28 28" fill="none" xmlns="http://www.w3.org/2000/svg">
<path d="M14.0005 2.64258C18.5153 2.64275 22.1665 6.29468 22.1665 10.8096C22.1663 15.6744 17.0107 22.3824 14.8989 24.9375C14.4323 25.4975 13.5805 25.4974 13.1138 24.9375C10.9905 22.3826 5.83373 15.6745 5.8335 10.8096C5.8335 6.29457 9.48549 2.64258 14.0005 2.64258ZM14.0005 7.89258C12.3905 7.89258 11.0835 9.19957 11.0835 10.8096C11.0837 12.4194 12.3906 13.7256 14.0005 13.7256C15.6102 13.7254 16.9163 12.4193 16.9165 10.8096C16.9165 9.19968 15.6103 7.89275 14.0005 7.89258Z" fill="#C8D8E0"/>
</svg>
